<?xml version="1.0" encoding="UTF-8"?>
<svg xmlns="http://www.w3.org/2000/svg" version="1.1" viewBox="0 0 1281 540">
  <!-- Generator: Adobe Illustrator 28.7.1, SVG Export Plug-In . SVG Version: 1.2.0 Build 142)  -->
  <g fill="currentColor">
    <g id="Logo-horizontal">
      <path id="logo" d="M425.7,133h31.2v-12h19.8v-24h7.3v-13.1h-7.3v-20.7h-19.8v-18.5h-31.2v28.3h-98.8v-28.3h-31.2v18.5h-18.7v20.7h-9.4v13.1h9.4v24h18.7v12h31.2v-30.5h18.7l-.2,103.2c-.3,102.9-.3,103.3-2.5,108.3-11.4,25.8-43.5,26-54.7.4l-2.4-5.4-.3-76.6-.3-76.5h-60.1l-.3,77.6-.3,77.7-3.2,6c-3.5,6.6-10.9,13.2-17.1,15.2-14.9,4.7-30.8-3.6-36.2-18.7-2.3-6.2-2.3-6.9-2.3-96.1v-89.9h17.7v30.5h31.2v-12h19.8v-24h7.3v-13.1h-7.3v-20.7h-19.8v-18.5h-31.2v28.3h-98.8v-28.3h-31.2v18.5h-18.7v20.7h-9.4v13.1h9.4v24h18.7v12h31.2v-30.5h20.7l.3,95.6.3,95.7,2.4,8.7c9.7,35.4,34.4,61.7,66.3,70.3,11.4,3.2,30.1,3.2,41.6.1,10.6-2.9,23.2-9.4,32.1-16.6l7-5.7,2.8,2.3c18.5,15.6,35.8,22.2,57.4,22.2,6.1-.1,14.1-.9,18.2-1.7,33.4-8,59.2-34.9,68.9-72l2.8-10.9.4-106.6.3-106.5h19.7v30.5ZM457,91.6v-18.5h11.4v37.1h-11.4v-18.5ZM435.1,87.8v-34.3h12.5v68.7h-12.5v-34.3ZM295.7,91.5v18.4l-5.3.4c-2.9.1-5.5.1-5.7-.1s-.4-8.7-.4-18.9v-18.3h11.4v18.4ZM214.6,116.7v-18.5h11.4v37.1h-11.4v-18.5ZM192.7,112.8v-34.3h12.5v68.7h-12.5v-34.3ZM53.3,116.5v18.4l-5.3.4c-2.9.1-5.5.1-5.7-.1s-.4-8.7-.4-18.9v-18.3h11.4v18.4ZM76,112.5l-.3,34.1h-12.5l-.3-34.1-.2-34h13.5l-.2,34ZM85.1,117.2l-.3-4.7-.3-4.6h98.9v9.8l-49.1-.2-49.2-.3ZM318.4,87.4l-.3,34.1h-12.5l-.3-34.1-.2-34h13.5l-.2,34ZM376.6,92.5l-49.2-.3-.3-4.7-.3-4.6h98.9v9.8l-49.1-.2Z"/>
      <g id="descr">
        <path d="M94.1,455.8h24.5c5,0,9.1,1.5,12.3,4.6,3.2,3,4.9,7,4.9,11.8s-1.6,8.7-4.9,11.6c-3.2,2.9-7.3,4.4-12.3,4.4h-15.1v9.3h-9.4v-41.6ZM103.5,464.4v15.2h14.8c2.5,0,4.4-.7,5.9-2,1.5-1.3,2.2-3.1,2.2-5.5s-.7-4.2-2.2-5.6c-1.5-1.4-3.5-2.1-5.9-2.1h-14.8Z"/>
        <path d="M141.9,455.8h37.8v8.5h-28.4v7.7h25.5v8.5h-25.5v8.3h29.4v8.7h-38.8v-41.6Z"/>
        <path d="M187.7,455.8h9.3v15.4h12.1l10.5-15.4h10.8l-13.3,19.3,14.3,22.4h-11.1l-10.9-17.7h-12.3v17.7h-9.3v-41.6Z"/>
        <path d="M273.2,460.9c4.5,4.1,6.8,9.3,6.8,15.7s-2.3,11.7-6.8,15.7c-4.5,4.1-10,6.1-16.5,6.1s-12-2-16.5-6.1c-4.5-4.1-6.8-9.3-6.8-15.7s2.3-11.7,6.8-15.7c4.5-4.1,10-6.1,16.5-6.1s12,2,16.5,6.1ZM246.7,466.6c-2.6,2.5-4,5.8-4,10s1.3,7.6,4,10c2.6,2.5,6,3.7,10,3.7s7.3-1.2,10-3.7c2.6-2.5,4-5.8,4-10s-1.3-7.6-4-10c-2.6-2.5-6-3.7-10-3.7s-7.3,1.2-10,3.7Z"/>
        <path d="M286.9,455.8h24.5c5,0,9.1,1.5,12.3,4.6,3.2,3,4.9,7,4.9,11.8s-1.6,8.7-4.9,11.6c-3.2,2.9-7.3,4.4-12.3,4.4h-15.1v9.3h-9.4v-41.6ZM296.3,464.4v15.2h14.8c2.5,0,4.4-.7,5.9-2,1.5-1.3,2.2-3.1,2.2-5.5s-.7-4.2-2.2-5.6c-1.5-1.4-3.5-2.1-5.9-2.1h-14.8Z"/>
        <path d="M342,455.8h33.2v33.2h4.9v16.4h-8.1l-.8-8h-32.1l-.8,8h-8.1v-16.4h5.3l6.5-33.2ZM349.6,464l-4.4,25h20.5v-25h-16.1Z"/>
        <path d="M386.4,455.8h9.4v9.5h14.4c5,0,9.1,1.4,12.3,4.3,3.2,2.9,4.8,6.7,4.8,11.5s-1.6,8.7-4.9,11.8c-3.2,3-7.3,4.6-12.3,4.6h-23.8v-41.6ZM395.9,473.7v15.2h13.7c5.6,0,8.4-2.6,8.4-7.8s-2.8-7.5-8.4-7.5h-13.7ZM431.2,455.8h9.4v41.6h-9.4v-41.6Z"/>
        <path d="M469.8,455.8h9.4v15.9h23.5v-15.9h9.4v41.6h-9.4v-17.3h-23.5v17.3h-9.4v-41.6Z"/>
        <path d="M536.2,455.8h15.3l17.7,41.6h-9.9l-2.7-6.3h-25.7l-2.7,6.3h-10.1l18.1-41.6ZM542.1,464.2l-7.8,18.7h18.5l-7.5-18.7h-3.2Z"/>
        <path d="M571.5,455.8h9.4v15.5c0,5.8,2.8,8.7,8.4,8.7h13.4v-24.2h9.4v41.6h-9.4v-9h-14.8c-4.9,0-8.9-1.5-11.9-4.5s-4.5-6.9-4.5-11.8v-16.3Z"/>
        <path d="M619.9,455.8h9.3v28.9l24.8-28.9h9.1v41.6h-9.3v-28.8l-24.7,28.8h-9.2v-41.6Z"/>
        <path d="M670.6,455.8h9.4v15.9h23.5v-15.9h9.4v41.6h-9.4v-17.3h-23.5v17.3h-9.4v-41.6Z"/>
        <path d="M737.1,455.8h15.3l17.7,41.6h-9.9l-2.7-6.3h-25.7l-2.7,6.3h-10.1l18.1-41.6ZM742.9,464.2l-7.8,18.7h18.5l-7.5-18.7h-3.2Z"/>
        <path d="M776,455.8h9.3v15.6h6.7c1.1-5.2,3.6-9.2,7.7-12.2,4.1-2.9,8.9-4.4,14.5-4.4s11.9,2,16.3,5.9c4.3,3.9,6.5,9.2,6.5,16s-2.2,12-6.5,16c-4.3,3.9-9.7,5.9-16.3,5.9s-11.1-1.7-15.2-5c-4.2-3.3-6.6-7.9-7.3-13.7h-6.3v17.6h-9.3v-41.6ZM804.2,466.5c-2.3,2.4-3.4,5.8-3.4,10.2s1.1,7.8,3.4,10.2c2.3,2.4,5.6,3.6,10,3.6s7.7-1.2,10-3.6c2.3-2.4,3.4-5.8,3.4-10.2s-1.1-7.8-3.4-10.2c-2.3-2.4-5.6-3.6-10-3.6s-7.7,1.2-10,3.6Z"/>
        <path d="M840.3,455.8h43.3v8.4h-16.9v33.2h-9.4v-33.2h-16.9v-8.4Z"/>
        <path d="M931.7,466l-7.3,4.2c-3.3-4.7-7.9-7-13.9-7s-7.5,1.2-10,3.7c-2.5,2.4-3.8,5.7-3.8,9.8s1.3,7.3,3.8,9.7c2.6,2.5,5.9,3.7,9.9,3.7,6,0,10.7-2.3,13.9-7l7.3,4.2c-4.4,7.4-11.4,11.1-21.1,11.1s-12.3-2-16.7-5.9c-4.4-4-6.5-9.3-6.5-15.9s2.2-11.9,6.6-15.9c4.4-4,9.9-5.9,16.7-5.9,9.7,0,16.7,3.7,21.1,11.1Z"/>
        <path d="M978.6,455.8v41.6h-9.4v-9.3h-15.5l-4.9,9.3h-10.2l6.4-11.4c-5.4-2.9-8.1-7.5-8.1-13.8s1.6-8.7,4.9-11.8c3.2-3,7.3-4.6,12.3-4.6h24.5ZM969.2,464.4h-14.8c-2.5,0-4.4.7-5.9,2.1-1.5,1.4-2.2,3.3-2.2,5.6s.7,4.2,2.2,5.5c1.5,1.3,3.4,2,5.9,2h14.8v-15.2Z"/>
        <path d="M1019.4,471.3h16.6c2.3,0,3.5-1.1,3.5-3.3,0-3.3-3.6-4.9-10.8-4.9s-6.6.3-9,.9c-2.3.6-4.8,1.8-7.5,3.4l-3.9-6.8c5.8-3.9,12.6-5.9,20.2-5.9s12.3,1.2,15.7,3.7c3.1,2.2,4.7,5.2,4.7,9.2s-1,5.1-3.1,6.5c3.9,2,5.8,5.3,5.8,9.9s-1.9,7.5-5.6,10.3c-3.6,2.7-9.4,4.1-17.4,4.1s-8.5-.5-11.9-1.4c-3.4-1-6.8-2.6-10.1-4.9l4.3-7c5.4,3.4,11.4,5,18.1,5s13.2-2.2,13.2-6.5-.5-2.5-1.4-3.2c-.9-.7-2.5-1-4.8-1h-16.6v-8.3Z"/>
        <path d="M1067.8,455.8h33.2v33.2h4.9v16.4h-8.1l-.8-8h-32.1l-.8,8h-8.1v-16.4h5.3l6.5-33.2ZM1075.5,464l-4.4,25h20.5v-25h-16.1Z"/>
        <path d="M1112.3,455.8h37.8v8.5h-28.4v7.7h25.5v8.5h-25.5v8.3h29.4v8.7h-38.8v-41.6Z"/>
        <path d="M1200.9,466l-7.3,4.2c-3.3-4.7-7.9-7-13.9-7s-7.5,1.2-10,3.7c-2.5,2.4-3.8,5.7-3.8,9.8s1.3,7.3,3.8,9.7c2.6,2.5,5.9,3.7,9.9,3.7,6,0,10.7-2.3,13.9-7l7.3,4.2c-4.4,7.4-11.4,11.1-21.1,11.1s-12.3-2-16.7-5.9c-4.4-4-6.5-9.3-6.5-15.9s2.2-11.9,6.6-15.9c4.4-4,9.9-5.9,16.7-5.9,9.7,0,16.7,3.7,21.1,11.1Z"/>
        <path d="M1207.6,455.8h9.4v9.5h14.4c5,0,9.1,1.4,12.3,4.3,3.2,2.9,4.8,6.7,4.8,11.5s-1.6,8.7-4.9,11.8c-3.2,3-7.3,4.6-12.3,4.6h-23.8v-41.6ZM1217,473.7v15.2h13.7c5.6,0,8.4-2.6,8.4-7.8s-2.8-7.5-8.4-7.5h-13.7Z"/>
      </g>
      <g id="title">
        <path d="M491.7,392.6c-16.6-67.9-31.3-119.8-44-155.7h29.6c1.5,5.6,6,23.3,13.7,52.9,7.6,29.7,13.8,52.1,18.6,67.2,4.9-16.9,13.3-49.5,25.1-97.9-2.8-8-5.6-15.4-8.5-22.2h29.6c.7,2.4,5.9,18.8,15.6,49.3,9.6,30.5,17.3,53.4,22.9,68.8,3.1-12.8,6.2-26.3,9.1-40.7,3-14.4,6-29.6,9.1-45.7,3.1-16.1,5.2-26.7,6.2-31.7h20.2c-2.5,6.7-5.7,17-9.6,31-3.9,14-7.3,27.1-10.5,39.3-3.1,12.2-7,27.7-11.6,46.7-4.6,19-7.8,31.9-9.6,38.7h-18.7c-9.2-30.7-20.8-66.4-34.9-107-19.3,67.2-29.6,102.8-30.9,107h-21.6Z"/>
        <path d="M697.9,396.8c-17.1,0-30.2-5.3-39.5-15.8-9.3-10.5-13.9-23.3-13.9-38.3s4.6-27.7,13.8-38c9.2-10.4,22.4-15.6,39.6-15.6s30.4,5.3,39.5,15.9c9.1,10.6,13.7,23.4,13.7,38.4s-4.6,27.6-13.7,37.9c-9.1,10.3-22.3,15.5-39.5,15.5ZM697.9,385.5c18.5,0,27.8-14,27.8-42s-2.4-24.8-7.1-32c-4.7-7.3-11.6-10.9-20.7-10.9-18.4,0-27.6,14.1-27.6,42.3s9.2,42.7,27.6,42.7Z"/>
        <path d="M806.9,393.9c-4.9,0-9.5-.5-13.7-1.6-4.2-1-8.3-2.8-12.1-5.2-3.9-2.4-6.9-6.1-9.2-10.9-2.3-4.8-3.4-10.6-3.4-17.5,0-30.8-.6-54.7-1.8-71.6h27.1c-1.8,26.2-2.4,50.1-1.8,71.6.7,14.4,8,21.3,21.8,20.7,8.6-.1,17-4.8,25.1-14,.9-24.9.5-51-1.1-78.3h26.7c-2.2,35.6-2.2,70.7,0,105.4h-20.2l-4.2-12.5c-11.4,9.2-22.5,13.8-33.1,13.8Z"/>
      </g>
    </g>
  </g>
</svg>