<?xml version="1.0" encoding="UTF-8"?>
<svg xmlns="http://www.w3.org/2000/svg" version="1.1" viewBox="0 0 1000 1000">
  <!-- Generator: Adobe Illustrator 28.7.1, SVG Export Plug-In . SVG Version: 1.2.0 Build 142)  -->
    <g fill="currentColor">
      <polygon points="355 276.7 355 266.7 254.2 266.7 153.5 266.7 154.2 276.1 154.8 285.6 255 286.3 355 286.7 355 276.7"/>
      <polygon points="109.3 206.8 109.7 276.1 110.3 345.5 123 345.5 135.8 345.5 136.4 276.1 136.8 206.8 123 206.8 109.3 206.8"/>
      <path d="M66.9,246.8v37.3c0,20.6.4,38,.8,38.4.4.4,5.7.4,11.7.2l10.8-.9v-75h-23.3Z"/>
      <polygon points="399.5 346.7 399.5 276.7 399.5 206.8 386.8 206.8 374.1 206.8 374.1 276.7 374.1 346.7 386.8 346.7 399.5 346.7"/>
      <path d="M560.5,195.7v37.3c0,20.6.4,38,.8,38.4.4.4,5.7.4,11.7.2l10.8-.9v-75h-23.3Z"/>
      <polygon points="441.9 322.2 441.9 284.5 441.9 246.8 430.2 246.8 418.6 246.8 418.6 284.5 418.6 322.2 430.2 322.2 441.9 322.2"/>
      <polygon points="867.7 155.8 867.7 225.7 867.7 295.6 880.4 295.6 893.1 295.6 893.1 225.7 893.1 155.8 880.4 155.8 867.7 155.8"/>
      <polygon points="912.2 195.7 912.2 233.4 912.2 271.2 923.9 271.2 935.5 271.2 935.5 233.4 935.5 195.7 923.9 195.7 912.2 195.7"/>
      <polygon points="602.9 155.8 603.3 225 604 294.5 616.7 294.5 629.4 294.5 630 225 630.4 155.8 616.7 155.8 602.9 155.8"/>
      <path d="M925,0H75C33.8,0,0,33.8,0,75v850c0,41.2,33.8,75,75,75h850c41.2,0,75-33.8,75-75V75c0-41.2-33.8-75-75-75ZM967.3,231.2v13.3h-14.8v48.8h-40.3v24.4h-63.6v-62.2h-40l-.6,216.9-.8,217.1-5.7,22.2c-19.7,75.7-72.2,130.5-140.2,146.7-8.3,1.8-24.6,3.3-37.1,3.6-44.1,0-79.2-13.5-116.9-45.3l-5.7-4.7-14.2,11.5c-18.2,14.7-43.9,27.7-65.5,33.7-23.5,6.2-61.4,6.2-84.7-.2-64.8-17.5-115.3-71-135-143.2l-4.9-17.8-.6-194.9-.6-194.7h-42.2v62.2h-63.6v-24.4h-38.1v-48.8h-19.1v-26.6h19.1v-42.2h38.1v-37.7h63.6v57.7h201.3v-57.7h63.6v37.7h40.3v42.2h14.8v26.6h-14.8v48.8h-40.3v24.4h-63.6v-62.2h-36v183.1c0,181.8,0,183.1,4.7,195.8,11,30.9,43.4,47.7,73.7,38.2,12.5-4,27.5-17.3,34.7-30.9l6.6-12.2.6-158.3.6-158h122.5l.6,155.8.6,156,4.9,11.1c22.9,52.2,88.1,51.7,111.4-.9,4.4-10.2,4.4-11.1,5.1-220.6l.4-210.2h-38.1v62.2h-63.6v-24.4h-38.1v-48.8h-19.1v-26.6h19.1v-42.2h38.1v-37.7h63.6v57.7h201.3v-57.7h63.6v37.7h40.3v42.2h14.8v13.3Z"/>
      <polygon points="647.2 215.7 647.8 225 648.4 234.6 748.7 235.2 848.6 235.7 848.6 225.7 848.6 215.7 747.8 215.7 647.2 215.7"/>
    </g>
</svg>