<?xml version="1.0" encoding="UTF-8"?>
<svg xmlns="http://www.w3.org/2000/svg" version="1.1" viewBox="0 0 1000 1000">
  <!-- Generator: Adobe Illustrator 28.7.1, SVG Export Plug-In . SVG Version: 1.2.0 Build 142)  -->
  <g>
    <g id="Logo">
      <path id="logo" d="M848.6,317.8h63.6v-24.4h40.3v-48.8h14.8v-26.6h-14.8v-42.2h-40.3v-37.7h-63.6v57.7h-201.3v-57.7h-63.6v37.7h-38.1v42.2h-19.1v26.6h19.1v48.8h38.1v24.4h63.6v-62.2h38.1l-.4,210.2c-.6,209.5-.6,210.4-5.1,220.6-23.3,52.6-88.6,53.1-111.4.9l-4.9-11.1-.6-156-.6-155.8h-122.5l-.6,158-.6,158.3-6.6,12.2c-7.2,13.5-22.2,26.9-34.7,30.9-30.3,9.5-62.7-7.3-73.7-38.2-4.7-12.7-4.7-14-4.7-195.8v-183.1h36v62.2h63.6v-24.4h40.3v-48.8h14.8v-26.6h-14.8v-42.2h-40.3v-37.7h-63.6v57.7h-201.3v-57.7h-63.6v37.7h-38.1v42.2h-19.1v26.6h19.1v48.8h38.1v24.4h63.6v-62.2h42.2l.6,194.7.6,194.9,4.9,17.8c19.7,72.1,70.1,125.6,135,143.2,23.3,6.4,61.2,6.4,84.7.2,21.6-6,47.2-19.1,65.5-33.7l14.2-11.5,5.7,4.7c37.7,31.7,72.9,45.3,116.9,45.3,12.5-.2,28.8-1.8,37.1-3.6,68-16.2,120.5-71,140.2-146.7l5.7-22.2.8-217.1.6-216.9h40v62.2ZM912.2,233.4v-37.7h23.3v75.5h-23.3v-37.7ZM867.7,225.7v-69.9h25.4v139.8h-25.4v-69.9ZM583.8,233.2v37.5l-10.8.9c-5.9.2-11.2.2-11.7-.2s-.8-17.8-.8-38.4v-37.3h23.3v37.5ZM418.6,284.5v-37.7h23.3v75.5h-23.3v-37.7ZM374.1,276.7v-69.9h25.4v139.8h-25.4v-69.9ZM90.2,284.3v37.5l-10.8.9c-5.9.2-11.2.2-11.7-.2s-.8-17.8-.8-38.4v-37.3h23.3v37.5ZM136.4,276.1l-.6,69.5h-25.4l-.6-69.5-.4-69.3h27.5l-.4,69.3ZM154.8,285.6l-.6-9.5-.6-9.3h201.5v20l-100-.4-100.2-.7ZM630,225l-.6,69.5h-25.4l-.6-69.5-.4-69.3h27.5l-.4,69.3ZM748.7,235.2l-100.2-.7-.6-9.5-.6-9.3h201.5v20l-100-.4Z"/>
    </g>
  </g>
</svg>